<svg width="8" height="7" viewBox="0 0 8 7" fill="none" xmlns="http://www.w3.org/2000/svg">
<ellipse cx="1.65385" cy="0.820513" rx="0.807692" ry="0.820513" fill="#FAB210"/>
<path d="M1.87571 3.24076V1.73247C2.42776 1.73247 2.67774 1.02513 2.584 0.806686C2.62566 0.77548 2.82148 0.611128 3.18812 0.244978C3.55476 -0.0129923 3.8478 0.13749 3.94848 0.244978C4.19152 0.491158 4.79634 1.1021 5.27131 1.57643C5.45879 2.08613 4.92064 2.20402 4.6776 2.08613L3.68808 1.05633L3.18812 1.57643C4.56649 2.9599 7.45032 5.85374 7.95862 6.36136C8.16694 6.96468 7.53157 7.12071 7.32325 6.91267L4.6776 4.32257L3.57351 5.38357H4.813C5.30255 5.38357 5.40671 6.27814 4.813 6.27814H2.10486C1.6049 6.09507 1.80627 5.72337 1.96946 5.56041L3.57351 3.90649C3.44505 3.79553 3.06521 3.43007 2.69857 3.02231C2.74023 3.74629 2.33054 3.98277 2.10486 3.9897H0.354986C-0.207475 3.90649 -0.0199879 3.24076 0.354986 3.24076H1.87571Z" fill="#FAB210"/>
</svg>
