<svg width="8" height="10" viewBox="0 0 8 10" fill="none" xmlns="http://www.w3.org/2000/svg">
<path d="M2.90226 1.11609C4.18219 5.91583 2.02999 8.1557 0.022422 8.60367C-0.0799724 8.80846 0.193079 9.03032 0.342404 9.11565C1.15303 8.79567 2.99186 7.75892 3.86221 6.17181C4.57897 8.68047 6.48607 9.37163 7.25403 9.37164C7.61667 9.11565 8.25237 8.51408 7.89399 8.1557C6.48607 8.2197 4.88615 7.19575 4.31019 5.27586C4.1566 4.76389 4.45951 4.72122 4.63017 4.76389C5.16347 4.4439 6.99804 3.67595 6.80605 3.03598C6.51807 2.07604 4.97148 3.50529 4.31019 4.12392C4.31019 3.93193 4.34859 3.06158 4.50218 1.11608C4.50218 -0.867803 2.58228 0.220139 2.90226 1.11609Z" fill="#05B0F9"/>
<path d="M1.11036 3.80396L0.790375 6.17183C2.00631 7.19577 2.11297 5.01989 2.00631 3.80396H1.11036Z" fill="#05B0F9"/>
</svg>
