<svg width="8" height="6" viewBox="0 0 8 6" fill="none" xmlns="http://www.w3.org/2000/svg">
<path d="M2.06668 3.44119L2.44834 4.90835L3.51401 4.62583C3.89237 4.55643 4.52715 4.24417 4.03941 3.55024C3.32566 2.53413 2.63173 1.81046 1.50162 1.76089C0.696663 2.32397 0.416118 3.7072 0.376465 4.32843H0.450814C1.12888 2.81368 1.81058 3.10579 2.06668 3.44119Z" fill="#AE4242"/>
<path d="M4.96162 0.0112155C3.51428 -0.147397 2.84183 1.41559 2.68652 2.21692L4.31725 3.93191C4.38004 3.884 4.61366 3.54827 5.04588 2.58866C4.31725 1.40898 5.09545 0.154958 5.77946 1.24046L5.88355 1.18098C5.89016 0.971149 5.71502 0.443434 4.96162 0.0112155Z" fill="#2E7A96"/>
<path d="M7.49734 4.27966C6.40292 2.65785 5.66339 3.73278 5.43043 4.47297L4.14666 4.61175C3.99962 4.63158 3.71444 4.58202 3.75013 4.22514C3.79474 3.77904 5.19251 1.88198 6.65967 2.30197C7.69858 2.59936 7.75344 3.75426 7.651 4.29453C7.64109 4.28957 7.59648 4.27966 7.49734 4.27966Z" fill="#E2C441"/>
<ellipse cx="0.42627" cy="4.7088" rx="0.42627" ry="0.42627" fill="#933738"/>
<ellipse cx="0.213214" cy="4.49565" rx="0.0545229" ry="0.0545229" fill="#E7E2E3"/>
<ellipse cx="7.57373" cy="4.7088" rx="0.42627" ry="0.42627" fill="#933738"/>
<ellipse cx="7.36068" cy="4.49565" rx="0.0545229" ry="0.0545229" fill="#E7E2E3"/>
<ellipse cx="5.88871" cy="1.46717" rx="0.297398" ry="0.297398" fill="#933738"/>
<circle cx="5.73985" cy="1.31846" r="0.039653" fill="#E7E2E3"/>
<path d="M2.45028 4.95663L2.30957 4.43123L3.6906 4.28253L5.45207 4.48575C5.34784 4.64271 5.1644 5.05775 5.26446 5.46221C4.51818 5.15688 3.07739 5.33499 2.45028 5.46221V4.95663Z" fill="#933738"/>
</svg>
