<svg width="33" height="23" viewBox="0 0 33 23" fill="none" xmlns="http://www.w3.org/2000/svg">
<path d="M4.30717 4.51257C1.86188 3.98386 1.30563 5.88942 1.33317 6.90829C1.33317 7.89963 1.58101 11.1215 2.57234 16.0781C7.36379 25.8263 14.3031 22.0261 15.7075 16.9869C13.7249 14.2111 13.9451 7.9547 14.3031 5.17346C12.3205 6.10972 7.54553 7.28831 4.30717 4.51257Z" fill="#C302FC" stroke="#C302FC"/>
<path d="M19.1891 1.36627C16.9207 0.311279 15.9579 2.04725 15.76 3.0471C15.5414 4.01403 15.0725 7.21119 14.9463 12.2645C17.4699 22.8293 25.0764 20.6532 27.5576 16.0477C30.9896 12.2645 32.9723 8.22169 32.1462 4.91724C29.5853 3.0471 21.7356 4.78786 19.1891 1.36627Z" fill="#FBB004" stroke="#FBB004"/>
</svg>
