<svg width="11" height="14" viewBox="0 0 11 14" fill="none" xmlns="http://www.w3.org/2000/svg">
<path d="M7.61449 12.9335C6.43212 13.9595 5.54244 13.361 5.2454 12.9335C4.37601 12.2673 3.22407 8.23678 1.42009 7.28745C-0.275221 6.82111 0.941923 -0.740297 5.2454 0.0591419C10.1792 -0.090749 10.0922 4.57267 10.5487 5.3388C11.0877 6.04498 9.88939 7.76489 9.22286 8.53658C8.91857 9.95226 8.02744 11.8676 7.61449 12.9335Z" fill="#882EFA"/>
<path d="M4.81072 2.22426C3.78919 0.99178 3.14005 3.2069 2.00694 3.77318C0.407269 4.57262 2.00695 4.92834 2.9198 4.6559C3.60807 4.45049 5.31062 3.63994 4.81072 2.22426Z" fill="#05B0F9"/>
<path d="M6.42458 2.22652C7.46783 0.990554 8.13077 3.21194 9.28796 3.77982C10.9216 4.58153 9.28796 4.93825 8.3557 4.66504C7.6528 4.45905 5.91405 3.6462 6.42458 2.22652Z" fill="#05B0F9"/>
<path d="M5.61488 5.13894L5.54968 5.43873C5.01066 5.62527 4.93386 5.42763 4.96284 5.30549L5.35406 5.05566L5.61488 5.13894Z" fill="#05B0F9" stroke="#05B0F9"/>
<path d="M5.94087 5.14015L6.00124 5.4443C6.5003 5.63356 6.5714 5.43304 6.54457 5.30913L6.18235 5.05566L5.94087 5.14015Z" fill="#05B0F9" stroke="#05B0F9"/>
<path d="M5.48452 11.4512L4.59339 8.1202C3.85441 6.17155 8.0492 6.45469 7.63626 8.1202C7.60728 8.33671 7.46238 9.30604 7.11462 11.4512C6.4365 12.2906 5.74533 11.801 5.48452 11.4512Z" fill="#05B0F9"/>
<path d="M5.28885 8.00361L4.76721 7.03761L5.28885 6.80444V8.00361Z" fill="#FAB210"/>
<path d="M7.02765 6.98767V7.92036L7.46234 7.35408L7.02765 6.98767Z" fill="#FAB210"/>
<path d="M5.81053 10.9182L5.44104 11.3846L5.72359 11.701L5.81053 10.9182Z" fill="#FAB210"/>
<path d="M6.94073 10.8683V11.6011L7.13635 11.4012V11.2014L6.94073 10.8683Z" fill="#FAB210"/>
</svg>
